<svg xmlns="http://www.w3.org/2000/svg" width="88.307" height="101.396" viewBox="0 0 88.307 101.396">
  <g id="Group_253" data-name="Group 253" transform="translate(22713.002 21938.375)">
    <g id="Union_1" data-name="Union 1" transform="translate(-22689.906 -21939.76)" fill="#c38ca3">
      <path d="M 20.78460121154785 54.55480194091797 C 15.36630153656006 54.55480194091797 10.27236080169678 52.44485855102539 6.441151142120361 48.61365127563477 C 2.609941005706787 44.78244018554688 0.500001072883606 39.68849945068359 0.500001072883606 34.27019882202148 C 0.500001072883606 28.85247993469238 2.609941005706787 23.75885963439941 6.441151142120361 19.92765045166016 C 8.753841400146484 17.61496925354004 11.48442077636719 15.94200038909912 14.55704116821289 14.95520973205566 L 15.13401126861572 14.76990985870361 L 14.84250068664551 14.2386302947998 C 14.29898071289062 13.24810981750488 14.01170063018799 12.12347030639648 14.01170063018799 10.98630046844482 C 14.01170063018799 9.639209747314453 14.19293117523193 7.061870098114014 15.40665149688721 4.935800075531006 C 16.56212043762207 2.911760091781616 18.33994102478027 1.88549017906189 20.69073104858398 1.88549017906189 C 20.72029113769531 1.88549017906189 20.74941062927246 1.885650157928467 20.77920150756836 1.885970115661621 C 23.17175102233887 1.911790132522583 24.97739028930664 2.944180011749268 26.14597129821777 4.954450130462646 C 27.37334060668945 7.065880298614502 27.55660057067871 9.639889717102051 27.55660057067871 10.98630046844482 C 27.55660057067871 12.12343978881836 27.26933097839355 13.24806976318359 26.7258415222168 14.23859977722168 L 26.43434143066406 14.76986980438232 L 27.01129150390625 14.95516967773438 C 30.08394050598145 15.94202995300293 32.81450271606445 17.61500930786133 35.12715148925781 19.92765045166016 C 38.9583625793457 23.75885963439941 41.06830215454102 28.85247993469238 41.06830215454102 34.27019882202148 C 41.06830215454102 39.68849945068359 38.9583625793457 44.78244018554688 35.12715148925781 48.61365127563477 C 31.29594039916992 52.44485855102539 26.20232200622559 54.55480194091797 20.78460121154785 54.55480194091797 Z M 20.78460121154785 22.22410011291504 C 14.14186096191406 22.22410011291504 8.737601280212402 27.62796020507812 8.737601280212402 34.27019882202148 C 8.737601280212402 40.91294097900391 14.14186096191406 46.31719970703125 20.78460121154785 46.31719970703125 C 27.42684173583984 46.31719970703125 32.8306999206543 40.91294097900391 32.8306999206543 34.27019882202148 C 32.8306999206543 27.62796020507812 27.42684173583984 22.22410011291504 20.78460121154785 22.22410011291504 Z" stroke="none"/>
      <path d="M 20.78460121154785 54.05480194091797 C 26.06877136230469 54.05480194091797 31.03682136535645 51.99687194824219 34.77359008789062 48.26008987426758 C 38.51037216186523 44.52331924438477 40.56830215454102 39.55495071411133 40.56830215454102 34.27019882202148 C 40.56830215454102 28.98603057861328 38.51037216186523 24.01798057556152 34.77359008789062 20.28120994567871 C 32.51769256591797 18.02531051635742 29.85464096069336 16.39353942871094 26.85840034484863 15.43122005462646 L 25.70450019836426 15.06060981750488 L 26.28749084472656 13.99808979034424 C 26.79064178466797 13.0810604095459 27.05660057067871 12.03960037231445 27.05660057067871 10.98630046844482 C 27.05660057067871 9.690219879150391 26.88214111328125 7.215780258178711 25.71369171142578 5.205729961395264 C 25.20950126647949 4.338380336761475 24.57296180725098 3.662750244140625 23.82175064086914 3.197610139846802 C 22.97238159179688 2.671690225601196 21.9469108581543 2.398600101470947 20.77384185791016 2.385940074920654 C 19.58872985839844 2.37324047088623 18.55789375305176 2.637308835983276 17.70479202270508 3.171450138092041 C 16.96626091003418 3.633840084075928 16.33915138244629 4.310860157012939 15.84087085723877 5.183680057525635 C 14.68438148498535 7.209510326385498 14.51170063018799 9.688750267028809 14.51170063018799 10.98630046844482 C 14.51170063018799 12.0396203994751 14.77767086029053 13.08108997344971 15.28084087371826 13.99810981750488 L 15.86388111114502 15.06066989898682 L 14.70992088317871 15.43126010894775 C 11.71371078491211 16.39351081848145 9.050651550292969 18.02527046203613 6.794711112976074 20.28120994567871 C 3.057931184768677 24.01798057556152 1.000001072883606 28.98603057861328 1.000001072883606 34.27019882202148 C 1.000001072883606 39.55495071411133 3.057931184768677 44.52331924438477 6.794711112976074 48.26008987426758 C 10.53148078918457 51.99687194824219 15.49985122680664 54.05480194091797 20.78460121154785 54.05480194091797 M 20.78460121154785 21.72410011291504 C 27.70254135131836 21.72410011291504 33.3306999206543 27.35226058959961 33.3306999206543 34.27019882202148 C 33.3306999206543 41.18864059448242 27.70254135131836 46.81719970703125 20.78460121154785 46.81719970703125 C 13.86616134643555 46.81719970703125 8.237601280212402 41.18864059448242 8.237601280212402 34.27019882202148 C 8.237601280212402 27.35226058959961 13.86616134643555 21.72410011291504 20.78460121154785 21.72410011291504 M 20.78460121154785 55.05480194091797 C 15.23250102996826 55.05480194091797 10.01340103149414 52.89300155639648 6.087601184844971 48.96720123291016 C 2.161801099777222 45.04140090942383 1.077270553651033e-06 39.82229995727539 1.077270553651033e-06 34.27019882202148 C 1.077270553651033e-06 28.7189998626709 2.161801099777222 23.49990081787109 6.087601184844971 19.57410049438477 C 8.458560943603516 17.20314025878906 11.3012809753418 15.47566032409668 14.40415096282959 14.47916030883789 C 13.83534145355225 13.44252967834473 13.51170063018799 12.25201988220215 13.51170063018799 10.98630046844482 C 13.51170063018799 6.969600677490234 15.02998542785645 1.323891401290894 20.78460121154785 1.386000156402588 C 26.53830146789551 1.448100090026855 28.05660057067871 6.969600200653076 28.05660057067871 10.98630046844482 C 28.05660057067871 12.25201988220215 27.73297119140625 13.44249057769775 27.1641902923584 14.4791202545166 C 30.26686096191406 15.47562026977539 33.1097412109375 17.20314025878906 35.4807014465332 19.57410049438477 C 39.40650177001953 23.49990081787109 41.56830215454102 28.7189998626709 41.56830215454102 34.27019882202148 C 41.56830215454102 39.82229995727539 39.40650177001953 45.04140090942383 35.4807014465332 48.96720123291016 C 31.55490112304688 52.89300155639648 26.33580017089844 55.05480194091797 20.78460121154785 55.05480194091797 Z M 20.78460121154785 22.72410011291504 C 14.41710090637207 22.72410011291504 9.237601280212402 27.90360069274902 9.237601280212402 34.27019882202148 C 9.237601280212402 40.63679885864258 14.41710090637207 45.81719970703125 20.78460121154785 45.81719970703125 C 27.15120124816895 45.81719970703125 32.3306999206543 40.63679885864258 32.3306999206543 34.27019882202148 C 32.3306999206543 27.90360069274902 27.15120124816895 22.72410011291504 20.78460121154785 22.72410011291504 Z" stroke="none" fill="#e8bfd0"/>
    </g>
    <path id="Path_1451" data-name="Path 1451" d="M-22705.7-22032.492l-6.9,3.641s9.41,26.578,42.758,26.652,44.289-26.652,44.289-26.652l-8.051-3.641s-9.031,21.934-36.238,21.664S-22705.7-22032.492-22705.7-22032.492Z" transform="translate(0.215 133.173)" fill="#c38ca3" stroke="#e8bfd0" stroke-width="1"/>
    <g id="Subtraction_2" data-name="Subtraction 2" transform="translate(-22713 -21861.611)" fill="#c38ca3">
      <path d="M 74.21581268310547 24.13300132751465 L 11.99972057342529 24.13300132751465 C 8.928187370300293 24.13300132751465 6.040420532226562 22.93686676025391 3.8683762550354 20.76493453979492 C 1.696254134178162 18.59292221069336 0.5000096559524536 15.70504474639893 0.5000096559524536 12.63330078125 L 0.5000096559524536 11.99970054626465 C 0.5000096559524536 8.928289413452148 1.696254134178162 6.040523052215576 3.868387460708618 3.86838960647583 C 6.040543079376221 1.696256160736084 8.928309440612793 0.5000006556510925 11.99972057342529 0.5000006556510925 L 74.21581268310547 0.5000006556510925 C 77.28756713867188 0.5000006556510925 80.17543029785156 1.696245074272156 82.34744262695312 3.868378400802612 C 84.51938629150391 6.040445327758789 85.71552276611328 8.928200721740723 85.71552276611328 11.99970054626465 L 85.71552276611328 12.63330078125 C 85.71552276611328 15.70513439178467 84.51938629150391 18.5930118560791 82.34745788574219 20.76494598388672 C 80.17552185058594 22.93686676025391 77.28765106201172 24.13300132751465 74.21581268310547 24.13300132751465 Z M 13.85641002655029 8.737600326538086 C 11.8824987411499 8.737600326538086 10.27660942077637 10.34308910369873 10.27660942077637 12.31650066375732 C 10.27660942077637 14.28991222381592 11.8824987411499 15.89540100097656 13.85641002655029 15.89540100097656 L 72.36002349853516 15.89540100097656 C 74.33343505859375 15.89540100097656 75.93891143798828 14.28991222381592 75.93891143798828 12.31650066375732 C 75.93891143798828 10.34308910369873 74.33343505859375 8.737600326538086 72.36002349853516 8.737600326538086 L 13.85641002655029 8.737600326538086 Z" stroke="none"/>
      <path d="M 74.21581268310547 23.63300704956055 C 77.15409088134766 23.63300704956055 79.91639709472656 22.48887634277344 81.993896484375 20.4113941192627 C 84.07138824462891 18.33390045166016 85.21551513671875 15.57158279418945 85.21551513671875 12.63330078125 L 85.21551513671875 11.99970054626465 C 85.21551513671875 9.061747550964355 84.07138061523438 6.299547672271729 81.99387359619141 4.221912384033203 C 79.91630554199219 2.144241809844971 77.15401458740234 1.000006556510925 74.21581268310547 1.000006556510925 L 11.99971771240234 1.000006556510925 C 9.061847686767578 1.000006556510925 6.299647331237793 2.144241809844971 4.221941471099854 4.221935749053955 C 2.144247531890869 6.299641609191895 1.000012278556824 9.06184196472168 1.000012278556824 11.99970054626465 L 1.000012278556824 12.63330078125 C 1.000012278556824 15.57148933410645 2.144247531890869 18.33379554748535 4.221918106079102 20.4113712310791 C 6.299541473388672 22.48887634277344 9.061753273010254 23.63300704956055 11.99971771240234 23.63300704956055 L 74.21581268310547 23.63300704956055 M 13.85640048980713 8.237594604492188 L 72.36001586914062 8.237594604492188 C 74.60911560058594 8.237594604492188 76.43890380859375 10.0673828125 76.43890380859375 12.31650066375732 C 76.43890380859375 14.56561851501465 74.60911560058594 16.39540672302246 72.36001586914062 16.39540672302246 L 13.85640048980713 16.39540672302246 C 11.60678863525391 16.39540672302246 9.77660083770752 14.56561851501465 9.77660083770752 12.31650066375732 C 9.77660083770752 10.0673828125 11.60678863525391 8.237594604492188 13.85640048980713 8.237594604492188 M 74.21581268310547 24.63300704956055 L 11.99971771240234 24.63300704956055 C 8.794635772705078 24.63300704956055 5.781318187713623 23.38485336303711 3.514835834503174 21.11849975585938 C 1.248271107673645 18.85204124450684 1.225657706527272e-05 15.83860683441162 1.225657706527272e-05 12.63330078125 L 1.225657706527272e-05 11.99970054626465 C 1.225657706527272e-05 8.794724464416504 1.248271107673645 5.781406402587891 3.514835834503174 3.514830112457275 C 5.781424045562744 1.248253583908081 8.794753074645996 6.546110398630844e-06 11.99971771240234 6.546110398630844e-06 L 74.21581268310547 6.546110398630844e-06 C 77.42112731933594 6.546110398630844e-06 80.43455505371094 1.248253583908081 82.70100402832031 3.514830112457275 C 84.96736145019531 5.78132438659668 86.21551513671875 8.79463005065918 86.21551513671875 11.99970054626465 L 86.21551513671875 12.63330078125 C 86.21551513671875 15.83870029449463 84.96736145019531 18.85213661193848 82.70100402832031 21.11849975585938 C 80.43464660644531 23.38485336303711 77.42121124267578 24.63300704956055 74.21581268310547 24.63300704956055 Z M 13.85640048980713 9.237594604492188 C 12.15818881988525 9.237594604492188 10.77660083770752 10.61879444122314 10.77660083770752 12.31650066375732 C 10.77660083770752 14.0142068862915 12.15818881988525 15.39540672302246 13.85640048980713 15.39540672302246 L 72.36001586914062 15.39540672302246 C 74.05771636962891 15.39540672302246 75.43890380859375 14.0142068862915 75.43890380859375 12.31650066375732 C 75.43890380859375 10.61879444122314 74.05771636962891 9.237594604492188 72.36001586914062 9.237594604492188 L 13.85640048980713 9.237594604492188 Z" stroke="none" fill="#e8bfd0"/>
    </g>
  </g>
</svg>
