<svg xmlns="http://www.w3.org/2000/svg" xmlns:xlink="http://www.w3.org/1999/xlink" width="228.617" height="124.287" viewBox="0 0 228.617 124.287">
  <defs>
    <filter id="Path_1691" x="0" y="93.275" width="228.617" height="31.012" filterUnits="userSpaceOnUse">
      <feOffset input="SourceAlpha"/>
      <feGaussianBlur stdDeviation="3.5" result="blur"/>
      <feFlood flood-color="#fed4e5"/>
      <feComposite operator="in" in2="blur"/>
      <feComposite in="SourceGraphic"/>
    </filter>
  </defs>
  <g id="Group_513" data-name="Group 513" transform="translate(-80.877 -107.499)">
    <g id="Group_253" data-name="Group 253" transform="translate(158 107.498)">
      <g id="Union_1" data-name="Union 1" transform="translate(19.327 0.001)" fill="#fff">
        <path d="M 17.39478492736816 44.41622924804688 C 12.88195514678955 44.41622924804688 8.639275550842285 42.65888977050781 5.448305130004883 39.46791839599609 C 2.25734543800354 36.27694702148438 0.5000053644180298 32.03427886962891 0.5000053644180298 27.52144813537598 C 0.5000053644180298 23.00909805297852 2.25734543800354 18.76669883728027 5.448305130004883 15.57572841644287 C 7.374545574188232 13.64948844909668 9.648765563964844 12.25608825683594 12.20782566070557 11.43423843383789 L 12.7847957611084 11.24893856048584 L 12.49328517913818 10.7176685333252 C 12.0449857711792 9.900669097900391 11.80803489685059 8.97300910949707 11.80803489685059 8.034988403320312 C 11.80803489685059 6.91567850112915 11.95830535888672 4.774678707122803 12.96474552154541 3.011708736419678 C 13.91618537902832 1.345058679580688 15.38023567199707 0.4999987185001373 17.31621551513672 0.4999987185001373 C 17.34065628051758 0.4999987185001373 17.36475563049316 0.5001286864280701 17.38938522338867 0.5003986954689026 C 19.36098480224609 0.5216786861419678 20.84871482849121 1.372038722038269 21.81124496459961 3.027868747711182 C 22.82883453369141 4.778408527374268 22.98077583312988 6.916378498077393 22.98077583312988 8.034988403320312 C 22.98077583312988 8.972989082336426 22.74382591247559 9.900629043579102 22.29555511474609 10.71762847900391 L 22.00405502319336 11.24889850616455 L 22.58100509643555 11.4341983795166 C 25.14006614685059 12.25609874725342 27.41428565979004 13.6495189666748 29.34050559997559 15.57572841644287 C 32.53147506713867 18.76669883728027 34.28881454467773 23.00910949707031 34.28881454467773 27.52144813537598 C 34.28881454467773 32.03427886962891 32.53147506713867 36.27694702148438 29.34050559997559 39.46791839599609 C 26.1495361328125 42.65888977050781 21.90712547302246 44.41622924804688 17.39478492736816 44.41622924804688 Z M 17.39478492736816 17.35842895507812 C 11.79046535491943 17.35842895507812 7.231015205383301 21.91753959655762 7.231015205383301 27.52144813537598 C 7.231015205383301 33.12577056884766 11.79046535491943 37.68520736694336 17.39478492736816 37.68520736694336 C 22.99868583679199 37.68520736694336 27.55779457092285 33.12577056884766 27.55779457092285 27.52144813537598 C 27.55779457092285 21.91753959655762 22.99868583679199 17.35842895507812 17.39478492736816 17.35842895507812 Z" stroke="none"/>
        <path d="M 17.39478492736816 43.91622924804688 C 21.77357482910156 43.91622924804688 25.89041519165039 42.21088790893555 28.98694610595703 39.11435699462891 C 32.08347702026367 36.01782989501953 33.78881454467773 31.90071868896484 33.78881454467773 27.52144813537598 C 33.78881454467773 23.14265823364258 32.08347702026367 19.02581787109375 28.98694610595703 15.92928886413574 C 27.11747550964355 14.05981826782227 24.91076469421387 12.70761871337891 22.42811584472656 11.91024875640869 L 21.27421569824219 11.53963851928711 L 21.85720443725586 10.47711849212646 C 22.26514625549316 9.73361873626709 22.48077583312988 8.889139175415039 22.48077583312988 8.034988403320312 C 22.48077583312988 6.966708660125732 22.3376350402832 4.928308486938477 21.37897491455078 3.279148817062378 C 20.49896621704102 1.765278697013855 19.19219589233398 1.019888758659363 17.38382530212402 1.000368714332581 C 17.36105537414551 1.000118732452393 17.33879470825195 0.9999986886978149 17.31621551513672 0.9999986886978149 C 15.54830551147461 0.9999986886978149 14.26696491241455 1.739118695259094 13.39896583557129 3.259588718414307 C 12.70566558837891 4.474058628082275 12.30803489685059 6.214618682861328 12.30803489685059 8.034988403320312 C 12.30803489685059 8.889168739318848 12.52367496490479 9.733648300170898 12.93162536621094 10.47713851928711 L 13.51465511322021 11.53969860076904 L 12.36070537567139 11.91028881072998 C 9.87806510925293 12.70760917663574 7.671345233917236 14.05978870391846 5.801865577697754 15.92928886413574 C 2.705335378646851 19.02580833435059 1.00000536441803 23.14264869689941 1.00000536441803 27.52144813537598 C 1.00000536441803 31.90072822570801 2.705335378646851 36.01783752441406 5.801865577697754 39.11435699462891 C 8.898395538330078 42.21088790893555 13.01550579071045 43.91622924804688 17.39478492736816 43.91622924804688 M 17.39478492736816 16.85842895507812 C 23.27438545227051 16.85842895507812 28.05779457092285 21.64183807373047 28.05779457092285 27.52144813537598 C 28.05779457092285 33.40147018432617 23.27438545227051 38.18520736694336 17.39478492736816 38.18520736694336 C 11.51476573944092 38.18520736694336 6.731015205383301 33.40147018432617 6.731015205383301 27.52144813537598 C 6.731015205383301 21.64183807373047 11.51476573944092 16.85842895507812 17.39478492736816 16.85842895507812 M 17.39478492736816 44.91622924804688 C 12.74818515777588 44.91622924804688 8.380285263061523 43.10699844360352 5.094755172729492 39.82146835327148 C 1.80922532081604 36.53593826293945 5.364990101952571e-06 32.16803741455078 5.364990101952571e-06 27.52144813537598 C 5.364990101952571e-06 22.87560844421387 1.80922532081604 18.50770950317383 5.094755172729492 15.22217845916748 C 7.079025268554688 13.23789882659912 9.458115577697754 11.79216861724854 12.05493545532227 10.95818901062012 C 11.57889556884766 10.09061908721924 11.30803489685059 9.094278335571289 11.30803489685059 8.034988403320312 C 11.30803489685059 4.673377990722656 12.57894802093506 -0.05154894292354584 17.39478492736816 0.0004287145857233554 C 22.2100944519043 0.05239871516823769 23.48077583312988 4.673378944396973 23.48077583312988 8.034988403320312 C 23.48077583312988 9.094278335571289 23.20992469787598 10.09057903289795 22.73390579223633 10.95814895629883 C 25.3305549621582 11.79212856292725 27.70977592468262 13.23789882659912 29.69405555725098 15.22217845916748 C 32.97958374023438 18.50770950317383 34.78881454467773 22.87560844421387 34.78881454467773 27.52144813537598 C 34.78881454467773 32.16803741455078 32.97958374023438 36.53593826293945 29.69405555725098 39.82146835327148 C 26.40852546691895 43.10699844360352 22.04061508178711 44.91622924804688 17.39478492736816 44.91622924804688 Z M 17.39478492736816 17.85842895507812 C 12.06577491760254 17.85842895507812 7.731015205383301 22.19318962097168 7.731015205383301 27.52144813537598 C 7.731015205383301 32.84969711303711 12.06577491760254 37.18520736694336 17.39478492736816 37.18520736694336 C 22.72303581237793 37.18520736694336 27.05779457092285 32.84969711303711 27.05779457092285 27.52144813537598 C 27.05779457092285 22.19318962097168 22.72303581237793 17.85842895507812 17.39478492736816 17.85842895507812 Z" stroke="none" fill="#e8bfd0"/>
      </g>
      <path id="Path_1451" data-name="Path 1451" d="M-22706.826-22032.492l-5.775,3.047s7.875,22.244,35.783,22.307,37.066-22.307,37.066-22.307l-6.738-3.047s-7.559,18.357-30.328,18.131S-22706.826-22032.492-22706.826-22032.492Z" transform="translate(22713.115 22065.178)" fill="#fff" stroke="#e8bfd0" stroke-width="1"/>
      <g id="Subtraction_2" data-name="Subtraction 2" transform="translate(0 64.244)" fill="#fff">
        <path d="M 61.84709930419922 20.11540031433105 L 10.30770015716553 20.11540031433105 C 4.899720191955566 20.11540031433105 0.5000001788139343 15.71568012237549 0.5000001788139343 10.30770015716553 C 0.5000001788139343 4.899720191955566 4.899720191955566 0.5000001788139343 10.30770015716553 0.5000001788139343 L 61.84709930419922 0.5000001788139343 C 67.25508117675781 0.5000001788139343 71.65480041503906 4.899720191955566 71.65480041503906 10.30770015716553 C 71.65480041503906 15.71568012237549 67.25508117675781 20.11540031433105 61.84709930419922 20.11540031433105 Z M 11.59650039672852 7.230999946594238 C 9.899510383605957 7.230999946594238 8.518899917602539 8.611200332641602 8.518899917602539 10.30770015716553 C 8.518899917602539 12.00419998168945 9.899510383605957 13.38440036773682 11.59650039672852 13.38440036773682 L 60.55830001831055 13.38440036773682 C 62.25479888916016 13.38440036773682 63.6349983215332 12.00419998168945 63.6349983215332 10.30770015716553 C 63.6349983215332 8.611200332641602 62.25479888916016 7.230999946594238 60.55830001831055 7.230999946594238 L 11.59650039672852 7.230999946594238 Z" stroke="none"/>
        <path d="M 61.84709930419922 19.61540031433105 C 66.97937774658203 19.61540031433105 71.15480041503906 15.43998050689697 71.15480041503906 10.30770015716553 C 71.15480041503906 5.17542028427124 66.97937774658203 1.00000011920929 61.84709930419922 1.00000011920929 L 10.30770015716553 1.00000011920929 C 5.17542028427124 1.00000011920929 1.000000238418579 5.17542028427124 1.000000238418579 10.30770015716553 C 1.000000238418579 15.43998050689697 5.17542028427124 19.61540031433105 10.30770015716553 19.61540031433105 L 61.84709930419922 19.61540031433105 M 11.59650039672852 6.730999946594238 L 60.55830001831055 6.730999946594238 C 62.53049850463867 6.730999946594238 64.13500213623047 8.33549976348877 64.13500213623047 10.30770015716553 C 64.13500213623047 12.27990055084229 62.53049850463867 13.88440036773682 60.55830001831055 13.88440036773682 L 11.59650039672852 13.88440036773682 C 9.623800277709961 13.88440036773682 8.018899917602539 12.27990055084229 8.018899917602539 10.30770015716553 C 8.018899917602539 8.33549976348877 9.623800277709961 6.730999946594238 11.59650039672852 6.730999946594238 M 61.84709930419922 20.61540031433105 L 10.30770015716553 20.61540031433105 C 4.62401008605957 20.61540031433105 2.075195197903668e-07 15.99139022827148 2.075195197903668e-07 10.30770015716553 C 2.075195197903668e-07 4.62401008605957 4.62401008605957 1.571655303678199e-07 10.30770015716553 1.571655303678199e-07 L 61.84709930419922 1.571655303678199e-07 C 67.53079223632812 1.571655303678199e-07 72.15480041503906 4.62401008605957 72.15480041503906 10.30770015716553 C 72.15480041503906 15.99139022827148 67.53079223632812 20.61540031433105 61.84709930419922 20.61540031433105 Z M 11.59650039672852 7.730999946594238 C 10.17520999908447 7.730999946594238 9.018899917602539 8.886899948120117 9.018899917602539 10.30770015716553 C 9.018899917602539 11.72850036621094 10.17520999908447 12.88440036773682 11.59650039672852 12.88440036773682 L 60.55830001831055 12.88440036773682 C 61.97909927368164 12.88440036773682 63.1349983215332 11.72850036621094 63.1349983215332 10.30770015716553 C 63.1349983215332 8.886899948120117 61.97909927368164 7.730999946594238 60.55830001831055 7.730999946594238 L 11.59650039672852 7.730999946594238 Z" stroke="none" fill="#e8bfd0"/>
      </g>
    </g>
    <g transform="matrix(1, 0, 0, 1, 80.88, 107.5)" filter="url(#Path_1691)">
      <path id="Path_1691-2" data-name="Path 1691" d="M8.064-2.908A2.467,2.467,0,0,1,6.855-.71,5.97,5.97,0,0,1,3.618.044Q3.047.044,1.377,0q.1-2.271.1-5.01,0-2.578-.1-4.526h.879q.256,0,1.033-.022T4.417-9.58q3.047,0,3.047,2.1A2.117,2.117,0,0,1,6.021-5.3v.073A2.17,2.17,0,0,1,8.064-2.908Zm-1.238.125q0-1.8-3.193-1.8-.586,0-1.033.044,0,1.956.081,3.494a4.913,4.913,0,0,0,.981.066,4.99,4.99,0,0,0,2.5-.461A1.468,1.468,0,0,0,6.826-2.783ZM6.233-7.112q0-1.516-2.043-1.516a10.15,10.15,0,0,0-1.663.11q.059.527.059,2.981.359.015.791.015a5,5,0,0,0,2.109-.33A1.29,1.29,0,0,0,6.233-7.112ZM22.154-1.077,22.11,0H16.346q.088-1.809.088-5.01,0-2.754-.088-4.526h1.362Q17.62-8.057,17.62-5.01q0,2.5-.081,4.014Q19.737-1,22.154-1.077ZM37.519-9.536q-.029,1.384-.044,2.585T37.46-4.709Q37.46.2,33.586.2a4.651,4.651,0,0,1-1.732-.289,2.792,2.792,0,0,1-1.187-.886,3.875,3.875,0,0,1-.681-1.505,9.363,9.363,0,0,1-.216-2.146q0-1.084-.015-2.3t-.044-2.6H31.1q-.088,2.791-.088,4.373a14.024,14.024,0,0,0,.125,2.076,3.711,3.711,0,0,0,.443,1.337,1.833,1.833,0,0,0,.8.758,2.941,2.941,0,0,0,1.23.223,3.1,3.1,0,0,0,1.274-.223,1.786,1.786,0,0,0,.8-.74,3.774,3.774,0,0,0,.439-1.326,13.7,13.7,0,0,0,.132-2.12q0-.776-.026-1.857t-.077-2.5Zm14.72,8.43L52.195,0h-5.9q.1-2.271.1-5.01,0-2.578-.1-4.526h5.537L51.77-8.445q-2.014-.088-4.27-.088.044,1.135.044,3.069,1.948,0,3.472-.088V-4.46q-1.626-.066-3.472-.066,0,1.882.066,3.53Q50.041-1,52.239-1.106ZM86.1-.2a7.708,7.708,0,0,1-2.424.4A5.11,5.11,0,0,1,79.8-1.176,4.734,4.734,0,0,1,78.491-4.57a5.075,5.075,0,0,1,1.421-3.571,5.118,5.118,0,0,1,3.94-1.527,6.785,6.785,0,0,1,1.721.212L85.391-8.24a8.7,8.7,0,0,0-1.948-.293A3.417,3.417,0,0,0,80.729-7.46,3.892,3.892,0,0,0,79.788-4.8,4.054,4.054,0,0,0,80.868-2,3.891,3.891,0,0,0,83.918-.8,7.814,7.814,0,0,0,85-.908a11.111,11.111,0,0,1-.125-1.772,13.276,13.276,0,0,0-.1-1.663H86.1q-.059.967-.059,2.043Q86.042-1.838,86.1-.2Zm16.837-4.717a5.181,5.181,0,0,1-1.384,3.783,4.347,4.347,0,0,1-3.2,1.417,4.216,4.216,0,0,1-3.058-1.3A4.716,4.716,0,0,1,93.98-4.526a5.17,5.17,0,0,1,1.384-3.8,4.368,4.368,0,0,1,3.2-1.4,4.216,4.216,0,0,1,3.058,1.3A4.716,4.716,0,0,1,102.938-4.915Zm-1.3.168a4.061,4.061,0,0,0-.992-2.926,3.083,3.083,0,0,0-2.289-1.036,2.769,2.769,0,0,0-2.139,1.091A4.32,4.32,0,0,0,95.277-4.7a4.054,4.054,0,0,0,1,2.933A3.1,3.1,0,0,0,98.565-.732,2.747,2.747,0,0,0,100.7-1.838,4.355,4.355,0,0,0,101.634-4.746Zm15.394,3.669L116.984,0H111.22q.088-1.809.088-5.01,0-2.754-.088-4.526h1.362q-.088,1.479-.088,4.526,0,2.5-.081,4.014Q114.611-1,117.028-1.077Zm15.255-4.036a5.468,5.468,0,0,1-1.329,3.647A4.55,4.55,0,0,1,127.287.1q-.762,0-2.542-.1.11-2.271.11-5.01,0-2.578-.11-4.526h.806q.293,0,.894-.022t.791-.022a5.1,5.1,0,0,1,3.816,1.271A4.411,4.411,0,0,1,132.283-5.112Zm-1.274.33A3.792,3.792,0,0,0,129.972-7.5a4.231,4.231,0,0,0-3.2-1.091,6.586,6.586,0,0,0-.842.073q.059,1.707.059,3.508,0,1.978.081,4.014a5.75,5.75,0,0,0,1.128.117,3.5,3.5,0,0,0,2.875-1.146A4.206,4.206,0,0,0,131.008-4.783ZM175.819-.2a7.708,7.708,0,0,1-2.424.4,5.11,5.11,0,0,1-3.878-1.373,4.734,4.734,0,0,1-1.307-3.395,5.075,5.075,0,0,1,1.421-3.571,5.118,5.118,0,0,1,3.94-1.527,6.785,6.785,0,0,1,1.721.212l-.183,1.216a8.7,8.7,0,0,0-1.948-.293,3.417,3.417,0,0,0-2.714,1.073,3.892,3.892,0,0,0-.941,2.662,4.054,4.054,0,0,0,1.08,2.8,3.891,3.891,0,0,0,3.051,1.2,7.814,7.814,0,0,0,1.077-.11,11.111,11.111,0,0,1-.125-1.772,13.276,13.276,0,0,0-.1-1.663h1.333q-.059.967-.059,2.043Q175.76-1.838,175.819-.2Zm15.247-9.338a5.374,5.374,0,0,1-.9,1.582Q188.891-6.1,188.5-5.435a5.271,5.271,0,0,0-.9,2.329q0,1.509.1,3.105H186.3q.1-1.516.1-3.12a5.694,5.694,0,0,0-.842-2.439q-.476-.872-1.575-2.52a6.491,6.491,0,0,1-.842-1.458h1.5A15.732,15.732,0,0,0,185.9-7.2a7.889,7.889,0,0,1,1.263,2.831h.073a7.7,7.7,0,0,1,1.2-2.783,11.322,11.322,0,0,0,1.2-2.38ZM208.994,0h-1.377q0-1.633-.227-4.724t-.242-3.706h-.073q-.732,2.38-1.857,5.167A16.629,16.629,0,0,0,204.094,0h-.989a17.174,17.174,0,0,0-1.047-3.322q-1.047-2.809-1.326-3.761t-.381-1.348h-.073q-.022,1-.289,4.05T199.721,0h-1.26q0-.073.5-4.032a52.177,52.177,0,0,0,.5-5.5h1.926a17.673,17.673,0,0,0,1.172,4.028,18.818,18.818,0,0,1,1.172,3.9h.073a17.374,17.374,0,0,1,1.318-3.915,16.446,16.446,0,0,0,1.318-4.017h1.882q0,1.545.337,5.479T208.994,0Z" transform="translate(9.12 113.5)" fill="#fff"/>
    </g>
  </g>
</svg>
